<?xml version="1.0" encoding="UTF-8" standalone="no"?>
<svg
   height="16"
   viewBox="0 0 16 16"
   width="16"
   version="1.1"
   id="svg1109"
   sodipodi:docname="MachineControllerIcon.svg"
   inkscape:version="1.2.2 (732a01da63, 2022-12-09)"
   xmlns:inkscape="http://www.inkscape.org/namespaces/inkscape"
   xmlns:sodipodi="http://sodipodi.sourceforge.net/DTD/sodipodi-0.dtd"
   xmlns="http://www.w3.org/2000/svg"
   xmlns:svg="http://www.w3.org/2000/svg">
  <defs
     id="defs1113">
    <inkscape:path-effect
       effect="bspline"
       id="path-effect7648"
       is_visible="true"
       lpeversion="1"
       weight="33.333333"
       steps="2"
       helper_size="0"
       apply_no_weight="true"
       apply_with_weight="true"
       only_selected="false" />
    <inkscape:path-effect
       effect="bspline"
       id="path-effect7622"
       is_visible="true"
       lpeversion="1"
       weight="33.333333"
       steps="2"
       helper_size="0"
       apply_no_weight="true"
       apply_with_weight="true"
       only_selected="false" />
  </defs>
  <sodipodi:namedview
     id="namedview1111"
     pagecolor="#505050"
     bordercolor="#eeeeee"
     borderopacity="1"
     inkscape:showpageshadow="0"
     inkscape:pageopacity="0"
     inkscape:pagecheckerboard="0"
     inkscape:deskcolor="#505050"
     showgrid="false"
     inkscape:zoom="22.627417"
     inkscape:cx="0.37565048"
     inkscape:cy="12.794213"
     inkscape:window-width="2400"
     inkscape:window-height="1321"
     inkscape:window-x="2391"
     inkscape:window-y="-9"
     inkscape:window-maximized="1"
     inkscape:current-layer="svg1109"
     showguides="true" />
  <path
     style="color:#000000;display:inline;fill:#ffffff;stroke-width:1.9123;-inkscape-stroke:none;paint-order:stroke fill markers"
     d="M 8.1924513,13.499966 C 3.4571738,13.561299 2.5273996,12.914568 2.3603234,8.1818412 2.196934,3.5535498 3.1810281,2.7775379 7.8118142,2.7175565 12.547092,2.6562216 13.476866,3.3029536 13.643943,8.0356802 13.807333,12.663973 12.823237,13.439984 8.1924513,13.499966 Z"
     id="path7379" />
  <path
     style="color:#000000;fill:#890000;stroke-width:1.92893;-inkscape-stroke:none;paint-order:stroke fill markers"
     d="m 3.2177727,5.2111372 c -0.00243,0.00138 -0.1874942,0.2009799 -0.1888348,0.203745 -6.702e-4,0.00138 -0.026923,0.06401 -0.033757,0.092644 -0.00682,0.028635 -0.010168,0.055515 -0.011847,0.077495 -0.00672,0.087927 0.00565,0.1349003 0.015053,0.173548 0.018769,0.077301 0.038809,0.1229005 0.062225,0.1752647 0.046847,0.1047251 0.1062993,0.2141923 0.1649025,0.3219162 0.044454,0.08171 0.081768,0.1519214 0.1178044,0.219104 -0.052224,0.071542 -0.1123281,0.1513367 -0.1787503,0.2408175 -0.080229,0.108084 -0.1594339,0.2191083 -0.2259798,0.3233454 -0.033273,0.05212 -0.063051,0.1016077 -0.092776,0.1684247 -0.014855,0.033409 -0.03148,0.06759 -0.043891,0.131389 -0.00621,0.0319 -0.011664,0.072055 -0.0085,0.1263584 0.00159,0.027149 0.00432,0.059602 0.01342,0.094362 0.00908,0.03476 0.046328,0.1098625 0.047097,0.1112335 0.00138,0.00243 0.1959263,0.1858063 0.1986916,0.1871469 0.00138,6.705e-4 0.069063,0.028613 0.097698,0.035445 0.028635,0.00682 0.055512,0.010168 0.077495,0.011847 0.087924,0.00672 0.1298455,-0.00734 0.1684961,-0.016743 0.077303,-0.018769 0.1262699,-0.040493 0.1786346,-0.063907 0.1047237,-0.046844 0.2108214,-0.1046153 0.3185455,-0.1632185 0.08297,-0.045148 0.1546791,-0.083167 0.2224747,-0.1194884 0.071975,0.052489 0.1520131,0.114951 0.2425002,0.1821221 0.1080839,0.080229 0.2191079,0.159434 0.3233452,0.2259796 0.05212,0.033273 0.098238,0.064735 0.1650528,0.094458 0.033409,0.014855 0.070962,0.029798 0.1347614,0.042209 0.0319,0.00621 0.072056,0.011664 0.1263585,0.0085 0.027149,-0.00159 0.057917,-0.00769 0.092678,-0.016781 0.03476,-0.00908 0.1115418,-0.042961 0.1129143,-0.043732 0.00243,-0.00138 0.1841244,-0.1992969 0.185465,-0.2020619 6.702e-4,-0.00138 0.030296,-0.065692 0.037128,-0.094328 0.00682,-0.028635 0.00679,-0.053831 0.00847,-0.075813 C 5.5513676,7.5744924 5.5406776,7.53089 5.5312736,7.4922413 5.5125042,7.4149421 5.4907805,7.3659743 5.4673652,7.3136095 5.4205191,7.208884 5.3627496,7.102788 5.3041448,6.9950639 5.2595247,6.9130632 5.2207666,6.8399161 5.1846571,6.7725892 5.2371047,6.7006862 5.2963615,6.6220938 5.3634073,6.5317718 5.4436373,6.423688 5.5228413,6.3126637 5.5893869,6.2084264 c 0.033273,-0.05212 0.064735,-0.098238 0.094458,-0.1650529 0.014855,-0.033409 0.033167,-0.072643 0.045578,-0.1364423 0.00621,-0.0319 0.011664,-0.072055 0.0085,-0.1263584 -0.00159,-0.027149 -0.00769,-0.057917 -0.016781,-0.092678 -0.0091,-0.03476 -0.042961,-0.1115419 -0.043732,-0.1129144 -0.00138,-0.00243 -0.1992944,-0.1841222 -0.2020594,-0.1854647 -0.00138,-6.704e-4 -0.069063,-0.028612 -0.097698,-0.035446 -0.028635,-0.00682 -0.052143,-0.011847 -0.074126,-0.013527 -0.087927,-0.00672 -0.1332179,0.00902 -0.1718659,0.018421 -0.077301,0.018769 -0.1229005,0.038809 -0.1752647,0.062225 C 4.8516737,5.4680358 4.7422066,5.5274884 4.6344825,5.5860916 4.5527722,5.6305459 4.482561,5.6678599 4.4153786,5.703896 4.3433704,5.6513893 4.2600771,5.5906916 4.1695068,5.5234625 4.0614287,5.4432285 3.9537751,5.3623407 3.8495376,5.2957952 3.7974179,5.2625231 3.7479291,5.2327443 3.6811128,5.2030193 3.6477042,5.1881646 3.6101505,5.1732213 3.5463514,5.1608108 c -0.0319,-0.00621 -0.068683,-0.013374 -0.1229875,-0.010183 -0.027149,0.00159 -0.057917,0.00769 -0.092678,0.016782 -0.03476,0.00908 -0.1115419,0.042961 -0.1129144,0.043732 z"
     id="path7708" />
  <path
     style="color:#000000;fill:#00892f;stroke-width:1.41209;-inkscape-stroke:none;paint-order:stroke fill markers"
     d="m 11.01736,10.212367 c -0.199605,-0.01356 -0.02356,-0.02311 -0.245461,0.0055 -0.221916,0.02863 -0.04758,-0.0086 -0.237188,0.05516 -0.189616,0.06383 -0.02933,-0.01215 -0.223397,0.09928 -0.194065,0.111371 -0.05058,0.01186 -0.201334,0.143415 -0.1507599,0.131521 -0.03156,0.0021 -0.1682385,0.179269 -0.1366765,0.177164 -0.03791,0.02765 -0.1268625,0.206851 -0.088952,0.179205 -0.029785,0.01298 -0.088259,0.228913 -0.058475,0.215979 -0.027773,0.04034 -0.041375,0.239945 -0.013557,0.199605 -0.020363,0.02355 0.00827,0.245462 0.028634,0.221914 -0.00861,0.05033 0.055155,0.239946 0.063817,0.189615 -0.012148,0.02933 0.099279,0.223397 0.111372,0.194065 0.011858,0.04781 0.1434168,0.198576 0.1315212,0.150759 -6.527e-4,0.03156 0.1765102,0.168238 0.177164,0.136678 0.0304,0.04068 0.209608,0.129631 0.179205,0.08895 0.01298,0.02702 0.228913,0.0855 0.215979,0.05847 0.04034,0.02777 0.239946,0.04138 0.199605,0.01356 0.02355,0.02037 0.245461,-0.0084 0.221915,-0.02863 0.04758,0.0086 0.237187,-0.05515 0.189617,-0.06383 0.0321,0.01215 0.226156,-0.09928 0.194065,-0.111372 0.04781,-0.01186 0.198576,-0.143415 0.150759,-0.131522 0.03157,6.52e-4 0.168238,-0.176512 0.136677,-0.177164 0.04068,-0.0304 0.12963,-0.209607 0.08895,-0.179207 0.02702,-0.01017 0.0855,-0.226157 0.05847,-0.215979 0.02776,-0.04309 0.04138,-0.242703 0.01356,-0.199605 0.02037,-0.02355 -0.0084,-0.245462 -0.02863,-0.221915 0.0086,-0.04758 -0.05515,-0.237187 -0.06383,-0.189617 0.01214,-0.02933 -0.09928,-0.223398 -0.111372,-0.194066 -0.01186,-0.04781 -0.143415,-0.198576 -0.131523,-0.150759 6.51e-4,-0.03156 -0.176512,-0.168238 -0.177164,-0.136677 -0.0304,-0.04068 -0.209609,-0.12963 -0.179206,-0.08895 -0.01299,-0.02979 -0.228913,-0.08826 -0.215979,-0.05847 -0.04034,-0.02501 -0.239945,-0.0386 z m -0.04413,0.653644 c -0.167194,-0.01143 0.2977,0.06929 0.113081,0.0193 -0.184623,-0.04996 0.25767,0.115876 0.107561,0.04138 -0.150108,-0.0745 0.250732,0.177504 0.09928,0.06068 -0.151445,-0.116837 0.195666,0.206262 0.0855,0.07998 -0.110177,-0.126284 0.1614,0.259663 0.06619,0.09378 -0.0952,-0.165891 0.100341,0.266389 0.04688,0.107561 -0.05347,-0.158827 0.05205,0.302776 0.02758,0.113081 -0.02448,-0.189697 -0.0086,0.28303 0.0028,0.115834 0.01143,-0.167195 -0.06929,0.297701 -0.0193,0.113081 0.04997,-0.184623 -0.115878,0.260428 -0.04138,0.110333 0.0745,-0.15011 -0.177505,0.247971 -0.06068,0.09653 0.116837,-0.151443 -0.206262,0.195668 -0.07998,0.0855 0.126284,-0.110176 -0.259663,0.164158 -0.09378,0.06896 0.16589,-0.0952 -0.263633,0.100341 -0.104801,0.04688 0.158828,-0.05346 -0.302774,0.0493 -0.113079,0.02482 0.189695,-0.02448 -0.285791,-0.0086 -0.118603,0.0028 0.167196,0.01145 -0.2977,-0.06652 -0.113081,-0.01655 0.184623,0.04999 -0.25767,-0.11863 -0.107561,-0.04413 0.15011,0.0745 -0.250729,-0.177505 -0.09928,-0.06068 0.151443,0.116823 -0.195668,-0.206262 -0.0855,-0.07998 0.110177,0.126284 -0.161398,-0.259663 -0.06618,-0.09378 0.0952,0.16589 -0.10034,-0.263631 -0.04688,-0.104801 0.05346,0.158828 -0.05205,-0.302775 -0.02758,-0.113079 0.02448,0.189696 0.0086,-0.28303 -0.0028,-0.115835 -0.01143,0.167196 0.06929,-0.300457 0.0193,-0.115834 -0.04999,0.184623 0.115876,-0.25767 0.04138,-0.107561 -0.0745,0.150108 0.177505,-0.250731 0.06068,-0.09928 -0.116822,0.151443 0.206261,-0.19291 0.07998,-0.08274 -0.126283,0.110177 0.259662,-0.164156 0.09378,-0.06894 -0.165891,0.0952 0.26639,-0.100341 0.10756,-0.04688 -0.158827,0.05346 0.302774,-0.05206 0.113081,-0.02758 -0.189696,0.02448 0.28303,0.0086 0.115834,-0.0028 z"
     id="path7710" />
  <path
     style="color:#000000;fill:#006989;-inkscape-stroke:none;paint-order:stroke fill markers"
     d="m 3.6445313,3.3710938 c -0.068545,0.00612 -0.1515072,0.030674 -0.2128907,0.087891 -0.061384,0.057216 -0.081531,0.1198723 -0.091797,0.1484375 -0.020532,0.05713 -0.00117,0.028086 -0.03125,0.050781 -0.030079,0.022695 -0.13329,0.076202 -0.3710938,0.1191407 -0.2378038,0.042939 -0.352555,0.030274 -0.3886719,0.019531 -0.036117,-0.010743 -0.00766,0.00728 -0.046875,-0.039063 C 2.4823454,3.7346414 2.4427515,3.6844795 2.3652344,3.6523438 2.2877173,3.620208 2.1991711,3.6262976 2.1328125,3.6445313 2.0000953,3.6809986 1.8814431,3.7536705 1.65625,3.8984375 1.4310568,4.0432045 1.3148378,4.1209633 1.2265625,4.2265625 c -0.044138,0.0528 -0.086897,0.1309812 -0.089844,0.2148437 -0.00295,0.083863 0.026123,0.140511 0.039063,0.1679688 0.025879,0.054916 0.022799,0.021277 0.017578,0.058594 -0.00522,0.037317 -0.041897,0.1491414 -0.1796875,0.3476563 -0.13779051,0.1985149 -0.22858408,0.2691671 -0.26171878,0.2871094 -0.0331347,0.017942 -4.853e-5,0.010899 -0.0605469,0.00586 -0.0302492,-0.00252 -0.0943387,-0.00865 -0.171875,0.023437 -0.0775363,0.032089 -0.13589245,0.096434 -0.16992187,0.15625 -0.0680589,0.1196316 -0.10133328,0.2559769 -0.15820313,0.5175782 -0.0568699,0.2616013 -0.0825623,0.4000194 -0.0703125,0.5371093 0.006125,0.068545 0.0306746,0.1515072 0.0878906,0.2128907 0.057216,0.061383 0.11987231,0.081531 0.1484375,0.091797 0.0571304,0.020532 0.028086,0.00117 0.0507813,0.03125 0.0226952,0.030079 0.076202,0.13329 0.11914062,0.3710938 0.0429386,0.2378038 0.0302739,0.352555 0.0195313,0.3886719 -0.0107426,0.036117 0.00728,0.00766 -0.0390625,0.046875 -0.0231711,0.019608 -0.073333,0.059202 -0.10546875,0.1367187 -0.0321357,0.077517 -0.0260462,0.1660633 -0.007813,0.2324219 0.0364674,0.1327172 0.10913923,0.2513694 0.25390625,0.4765625 0.14476704,0.2251932 0.22252582,0.3414122 0.328125,0.4296875 0.0527996,0.044138 0.1309812,0.086897 0.2148437,0.089844 0.083863,0.00295 0.140511,-0.026123 0.1679688,-0.039063 0.054916,-0.025879 0.021277,-0.0228 0.058594,-0.017578 0.037317,0.00522 0.1491414,0.041897 0.3476563,0.1796875 0.1985149,0.1377905 0.2691671,0.2285841 0.2871094,0.2617188 0.017942,0.033135 0.010899,4.85e-5 0.00586,0.060547 -0.00252,0.030249 -0.00865,0.094339 0.023437,0.171875 0.032089,0.077536 0.096434,0.1358924 0.15625,0.1699218 0.1196315,0.068059 0.2559768,0.1013333 0.5175781,0.1582032 0.2616013,0.05687 0.4000194,0.082562 0.5371094,0.070312 0.068545,-0.0061 0.1515071,-0.03067 0.2128906,-0.08789 0.061384,-0.057216 0.081531,-0.1198723 0.091797,-0.1484375 0.020532,-0.05713 0.00117,-0.028086 0.03125,-0.050781 C 3.6589855,9.7566016 3.7621962,9.7030949 4,9.6601563 4.2378038,9.6172176 4.352555,9.6298824 4.3886719,9.640625 c 0.036117,0.010743 0.00766,-0.00728 0.046875,0.039063 0.019608,0.023171 0.059202,0.073333 0.1367187,0.1054688 0.077517,0.032136 0.1660633,0.026046 0.2324219,0.00781 C 4.9374047,9.7565014 5.0560569,9.6838295 5.28125,9.5390625 5.5064432,9.3942955 5.6226622,9.3165367 5.7109375,9.2109375 c 0.044138,-0.0528 0.086897,-0.1309812 0.089844,-0.2148437 0.00295,-0.083863 -0.026123,-0.140511 -0.039063,-0.1679688 -0.025879,-0.054916 -0.022799,-0.021277 -0.017578,-0.058594 0.00522,-0.037317 0.041897,-0.1491414 0.1796875,-0.3476563 0.1377905,-0.1985149 0.2285841,-0.2691671 0.2617188,-0.2871094 0.033135,-0.017942 4.85e-5,-0.010899 0.060547,-0.00586 0.030249,0.00252 0.094339,0.00865 0.171875,-0.023437 C 6.495505,8.0733793 6.5538612,8.0090345 6.5878906,7.9492187 6.6559495,7.8295872 6.6892239,7.6932419 6.7460937,7.4316406 6.8029636,7.1700393 6.8286561,7.0316212 6.8164062,6.8945312 6.8102813,6.8259863 6.7857317,6.7430241 6.7285156,6.6816406 6.6712996,6.6202571 6.6086433,6.6001098 6.5800781,6.5898437 6.5229478,6.5693117 6.5519921,6.588673 6.5292969,6.5585937 6.5066016,6.5285145 6.4530949,6.4253038 6.4101562,6.1875 6.3672176,5.9496962 6.3798824,5.834945 6.390625,5.7988281 c 0.010743,-0.036117 -0.00728,-0.00766 0.039063,-0.046875 0.023171,-0.019608 0.073333,-0.059202 0.1054687,-0.1367187 0.032136,-0.077517 0.026046,-0.1660633 0.00781,-0.2324219 C 6.5065014,5.2500953 6.4338295,5.1314431 6.2890625,4.90625 6.1442955,4.6810568 6.0665367,4.5648378 5.9609375,4.4765625 5.9081379,4.4324249 5.8299563,4.3896656 5.7460937,4.3867187 5.6622312,4.3837719 5.6055828,4.4128418 5.578125,4.4257812 5.5232094,4.4516601 5.5568484,4.4485807 5.5195312,4.4433594 5.4822141,4.4381381 5.3703899,4.4014624 5.171875,4.2636719 4.9733601,4.1258814 4.9027079,4.0350878 4.8847656,4.0019531 c -0.017942,-0.033135 -0.010899,-4.85e-5 -0.00586,-0.060547 0.00252,-0.030249 0.00865,-0.094339 -0.023437,-0.171875 C 4.8233793,3.691995 4.7590345,3.6336388 4.6992187,3.5996094 4.5795872,3.5315505 4.4432419,3.4982761 4.1816406,3.4414063 3.9200393,3.3845364 3.7816212,3.3588439 3.6445313,3.3710938 Z m 0.080078,0.46875 c 0.033784,0.00111 0.1330051,0.00785 0.3574218,0.056641 0.2251159,0.048938 0.3188962,0.084784 0.3496094,0.097656 2.033e-4,0.064267 -0.00932,0.1319603 0.042969,0.2285156 0.073301,0.135367 0.2029271,0.2637209 0.4335937,0.4238282 0.2306667,0.1601073 0.3944211,0.2345285 0.546875,0.2558593 0.1096699,0.015345 0.170384,-0.016682 0.2304688,-0.039063 0.022991,0.024523 0.088556,0.099559 0.2128906,0.2929688 0.1245283,0.1937106 0.1650894,0.2855312 0.1777344,0.3164062 -0.045304,0.045494 -0.099439,0.087724 -0.1308594,0.1933594 -0.043888,0.1475503 -0.044034,0.3271968 0.00586,0.6035156 0.049893,0.276319 0.1123601,0.4474282 0.2050781,0.5703125 0.066428,0.088041 0.1330586,0.1080061 0.1914062,0.1347657 -0.00111,0.033783 -0.00785,0.1330051 -0.056641,0.3574218 C 6.2420774,7.5571471 6.206232,7.6509274 6.1933594,7.6816406 6.1290929,7.6818439 6.0613991,7.6723251 5.9648437,7.7246094 5.8294768,7.79791 5.7011229,7.9275365 5.5410156,8.1582031 5.3809083,8.3888698 5.3064871,8.5526242 5.2851562,8.7050781 5.2698116,8.814748 5.3018378,8.8754621 5.3242187,8.9355469 5.299696,8.9585377 5.2246595,9.0241028 5.03125,9.1484375 4.8375394,9.2729658 4.7457188,9.3135269 4.7148437,9.3261719 4.6693495,9.2808678 4.6271194,9.2267327 4.5214844,9.1953125 4.3739341,9.151425 4.1942876,9.1512789 3.9179688,9.2011719 3.6416498,9.2510649 3.4705406,9.313532 3.3476563,9.40625 3.2596151,9.4726783 3.2396502,9.5393086 3.2128906,9.5976563 3.1791071,9.5965472 3.0798855,9.5898019 2.8554688,9.5410156 2.6303529,9.4920774 2.5365726,9.456232 2.5058594,9.4433594 2.5056561,9.3790929 2.5151749,9.3113991 2.4628906,9.2148438 2.38959,9.0794768 2.2599635,8.9511229 2.0292969,8.7910156 1.7986302,8.6309083 1.6348758,8.5564871 1.4824219,8.5351563 1.372752,8.5198116 1.3120379,8.5518378 1.2519531,8.5742188 1.2289623,8.549696 1.1633972,8.4746595 1.0390625,8.28125 0.91453422,8.0875394 0.8739731,7.9957188 0.86132813,7.9648437 0.90663225,7.9193495 0.96076732,7.8771194 0.9921875,7.7714844 1.036075,7.6239341 1.0362211,7.4442876 0.98632813,7.1679687 0.9364351,6.8916498 0.87396803,6.7205406 0.78125,6.5976562 0.71482168,6.5096151 0.64819144,6.4896502 0.58984375,6.4628906 c 0.001109,-0.033783 0.007854,-0.1330051 0.0566406,-0.3574219 0.0489382,-0.2251158 0.0847836,-0.3188961 0.0976563,-0.3496093 0.0642665,-2.033e-4 0.13196032,0.00932 0.22851563,-0.042969 C 1.1080232,5.63959 1.2363771,5.5099635 1.3964844,5.2792969 1.5565917,5.0486302 1.6310129,4.8848758 1.6523437,4.7324219 1.6676884,4.622752 1.6356622,4.5620379 1.6132812,4.5019531 1.637804,4.4789623 1.7128405,4.4133972 1.90625,4.2890625 2.0999606,4.1645342 2.1917812,4.1239731 2.2226563,4.1113281 c 0.045494,0.045304 0.087724,0.099439 0.1933593,0.1308594 0.1475503,0.043888 0.3271968,0.044034 0.6035157,-0.00586 C 3.2958502,4.1864351 3.4669594,4.123968 3.5898438,4.03125 3.6778849,3.9648217 3.6978498,3.8981914 3.7246094,3.8398438 Z"
     id="path1755"
     transform="matrix(-0.51215332,0.90561305,-0.88707558,-0.52285594,13.035857,12.167353)" />
  <path
     style="color:#000000;fill:#006989;stroke-width:0.465214;-inkscape-stroke:none;paint-order:stroke fill markers"
     d="M 5.15625,9.34375 C 4.2773245,9.9087735 4.9866225,9.2447467 3.9583761,9.4304102 2.9301296,9.6160736 3.8268637,9.9901102 2.8058374,9.768148 1.7848113,9.5461858 2.7558985,9.5781973 1.8975346,8.9824012 1.0391706,8.386605 1.4087736,9.2851756 0.84375001,8.40625 0.27872647,7.5273245 0.94275328,8.2366225 0.75708984,7.2083761 0.57142637,6.1801296 0.19738982,7.0768637 0.41935202,6.0558374 0.64131419,5.0348113 0.60930267,6.0058985 1.2050988,5.1475346 1.800895,4.2891706 0.90232444,4.6587736 1.78125,4.09375 2.6601755,3.5287265 1.9508775,4.1927533 2.9791239,4.0070898 4.0073704,3.8214264 3.1106363,3.4473898 4.1316626,3.669352 5.1526887,3.8913142 4.1816015,3.8593027 5.0399654,4.4550988 5.8983294,5.050895 5.5287264,4.1523244 6.09375,5.03125 6.6587735,5.9101755 5.9947467,5.2008775 6.1804102,6.2291239 6.3660736,7.2573704 6.7401102,6.3606363 6.518148,7.3816626 6.2961858,8.4026887 6.3281973,7.4316015 5.7324012,8.2899654 5.136605,9.1483294 6.0351756,8.7787264 5.15625,9.34375 Z"
     id="path1757"
     transform="matrix(-0.51215332,0.90561305,-0.88707558,-0.52285594,13.035857,12.167353)" />
  <path
     style="color:#000000;fill:#006989;stroke-linecap:square;stroke-linejoin:bevel;stroke-miterlimit:3.4;-inkscape-stroke:none;paint-order:stroke fill markers"
     d="m -2.015625,0.7109375 c -0.094818,0.007256 -0.198898,0.0398753 -0.2753906,0.109375 -0.076493,0.0694997 -0.1032455,0.14693462 -0.1191407,0.1894531 -0.03179,0.085037 -0.017669,0.083691 -0.089844,0.1367188 -0.072174,0.053028 -0.2560274,0.1374201 -0.6484375,0.203125 -0.3924101,0.065705 -0.5941761,0.044203 -0.6796875,0.017578 -0.085511,-0.026625 -0.071149,-0.029566 -0.1289063,-0.099609 -0.028878,-0.035022 -0.078868,-0.09788 -0.1738281,-0.1386719 -0.09496,-0.040792 -0.2048646,-0.037698 -0.296875,-0.013672 C -4.6117552,1.1632864 -4.8061215,1.2738455 -5.1679687,1.5 -5.529816,1.7261545 -5.7140595,1.8517383 -5.8378906,1.9960937 c -0.061916,0.072178 -0.1141959,0.1702054 -0.1191406,0.2734376 -0.00494,0.1032321 0.031956,0.1754921 0.050781,0.2167968 0.037651,0.082609 0.046742,0.071625 0.033203,0.1601563 C -5.8865858,2.7350156 -5.9564845,2.9260638 -6.1875,3.25 c -0.2310155,0.3239362 -0.3894578,0.4525015 -0.46875,0.4941406 -0.079292,0.041639 -0.071741,0.028219 -0.1621094,0.019531 -0.045184,-0.00434 -0.1247123,-0.014865 -0.2207031,0.023437 -0.095991,0.038302 -0.1706778,0.1191217 -0.21875,0.2011719 -0.096145,0.1641002 -0.1560039,0.3791418 -0.2519531,0.7949218 -0.095949,0.41578 -0.1375598,0.6365353 -0.1230469,0.8261719 0.00726,0.094818 0.039875,0.198898 0.109375,0.2753906 0.0695,0.076493 0.1469346,0.1032455 0.1894531,0.1191406 0.085037,0.03179 0.083691,0.017669 0.1367188,0.089844 0.053027,0.072174 0.1374201,0.2560274 0.203125,0.6484375 0.065705,0.3924101 0.044203,0.5941761 0.017578,0.6796875 -0.026625,0.085511 -0.029566,0.071149 -0.099609,0.1289062 -0.035022,0.028878 -0.09788,0.078868 -0.1386718,0.1738282 -0.040792,0.09496 -0.037698,0.2048646 -0.013672,0.296875 0.048052,0.1840208 0.1586111,0.3783871 0.3847656,0.7402344 0.2261545,0.3618472 0.3517383,0.5460907 0.4960938,0.6699218 0.072178,0.061916 0.1702053,0.1141959 0.2734375,0.1191407 0.1032321,0.00494 0.1754921,-0.031956 0.2167968,-0.050781 0.082609,-0.037651 0.071625,-0.046742 0.1601563,-0.033203 0.088531,0.013539 0.2795794,0.083438 0.6035156,0.3144531 0.3239362,0.231016 0.4525015,0.389458 0.4941406,0.46875 0.041639,0.07929 0.028219,0.07174 0.019531,0.162109 -0.00434,0.04519 -0.014865,0.124713 0.023437,0.220704 0.038302,0.09599 0.1191217,0.170677 0.2011719,0.21875 0.1641002,0.09614 0.3791418,0.156003 0.7949218,0.251953 0.41578,0.09595 0.6365353,0.137559 0.8261719,0.123047 0.094818,-0.0073 0.198898,-0.03988 0.2753906,-0.109375 0.076493,-0.0695 0.1032455,-0.146935 0.1191406,-0.189454 0.03179,-0.08504 0.017669,-0.08369 0.089844,-0.136718 0.072174,-0.05303 0.2560274,-0.137421 0.6484375,-0.203125 0.3924101,-0.06571 0.5941761,-0.0442 0.6796875,-0.01758 0.0855114,0.02662 0.0711494,0.02957 0.12890625,0.09961 0.0288784,0.03502 0.0788684,0.09788 0.17382813,0.138672 0.0949597,0.04079 0.2048646,0.0377 0.29687499,0.01367 0.1840208,-0.04805 0.37838715,-0.158611 0.74023438,-0.384766 C 0.77981598,10.211345 0.96405949,10.085762 1.0878906,9.9414063 1.1498062,9.8692285 1.2020865,9.7712009 1.2070312,9.6679688 1.211976,9.5647366 1.1750756,9.4924766 1.15625,9.4511719 1.1185989,9.3685625 1.109508,9.3795468 1.1230469,9.2910156 1.1365858,9.2024844 1.2064845,9.0114362 1.4375,8.6875 1.6685155,8.3635638 1.8269578,8.2349985 1.90625,8.1933594 c 0.079292,-0.041639 0.071741,-0.028219 0.1621094,-0.019531 0.045184,0.00434 0.1247123,0.014865 0.2207031,-0.023437 0.095991,-0.038302 0.1706778,-0.1191217 0.21875,-0.2011719 C 2.603957,7.7851185 2.6638164,7.5700769 2.7597656,7.1542969 2.8557149,6.7385169 2.8973254,6.5177616 2.8828125,6.328125 2.8755561,6.2333067 2.8429372,6.129227 2.7734375,6.0527344 2.7039378,5.9762418 2.6265029,5.9494889 2.5839844,5.9335937 2.4989474,5.9018035 2.5002932,5.9159244 2.4472656,5.84375 2.3942381,5.7715756 2.3098455,5.5877226 2.2441406,5.1953125 2.1784358,4.8029024 2.1999377,4.6011364 2.2265625,4.515625 c 0.026625,-0.085511 0.029566,-0.071149 0.099609,-0.1289063 0.035022,-0.028878 0.09788,-0.078868 0.1386719,-0.1738281 0.040792,-0.09496 0.037698,-0.2048646 0.013672,-0.296875 C 2.4304636,3.7319948 2.3199045,3.5376285 2.09375,3.1757813 1.8675955,2.813934 1.7420117,2.6296905 1.5976562,2.5058594 1.5254785,2.4439438 1.4274509,2.3916635 1.3242187,2.3867188 1.2209866,2.381774 1.1487266,2.4186744 1.1074219,2.4375 1.0248125,2.4751511 1.0357968,2.484242 0.94726563,2.4707031 0.85873445,2.4571642 0.66768618,2.3872655 0.34375,2.15625 0.01981382,1.9252345 -0.10875152,1.7667922 -0.15039062,1.6875 c -0.0416391,-0.079292 -0.0282191,-0.071741 -0.0195313,-0.1621094 0.004344,-0.045184 0.014865,-0.1247123 -0.0234375,-0.2207031 -0.0383025,-0.095991 -0.11912176,-0.1706778 -0.20117188,-0.21875 C -0.55863149,0.98979304 -0.77367311,0.92993361 -1.1894531,0.83398438 -1.6052331,0.73803513 -1.8259884,0.69642461 -2.015625,0.7109375 Z m 0.060547,0.5175781 c 0.061732,-0.00225 0.2595751,0.017684 0.6484375,0.1074219 0.38973887,0.08994 0.5788539,0.158556 0.63281248,0.1875 -0.006338,0.078359 -0.0225457,0.2311889 0.0683594,0.4042969 0.1014406,0.1931705 0.29119984,0.3922801 0.65039062,0.6484375 C 0.40411266,2.8323293 0.65346225,2.9455324 0.86914063,2.9785156 1.0624031,3.0080709 1.2014074,2.9436293 1.2734375,2.9121094 1.3182119,2.9534311 1.4439941,3.1096093 1.65625,3.4492188 1.8683267,3.7885414 1.9530689,3.9707628 1.9707031,4.0292969 1.910769,4.0802743 1.7924677,4.1767035 1.734375,4.3632812 1.6695121,4.5716028 1.6634725,4.8461331 1.7363281,5.28125 1.8091837,5.7163669 1.9040182,5.9726072 2.0332031,6.1484375 2.1489255,6.3059442 2.291982,6.3600088 2.3652344,6.3886719 2.3674829,6.4504042 2.34755,6.648247 2.2578125,7.0371094 2.1678727,7.4268483 2.0992565,7.6159633 2.0703125,7.6699219 1.9919531,7.6635839 1.8391236,7.6473762 1.6660156,7.7382812 1.4728451,7.8397218 1.2737355,8.0294811 1.0175781,8.3886719 0.76142073,8.7478627 0.64821764,8.9972122 0.61523437,9.2128906 0.58567913,9.4061531 0.65012067,9.5451574 0.68164062,9.6171875 0.64031892,9.6619619 0.48414072,9.7877441 0.14453125,10 c -0.33932267,0.212077 -0.52154407,0.296819 -0.58007813,0.314453 -0.0509775,-0.05993 -0.14740662,-0.178235 -0.33398437,-0.236328 -0.20832154,-0.06486 -0.48285185,-0.0709 -0.91796875,0.002 -0.4351169,0.07286 -0.6913572,0.16769 -0.8671875,0.296875 -0.1575067,0.115722 -0.2115713,0.258779 -0.2402344,0.332031 -0.061732,0.0022 -0.2595751,-0.01768 -0.6484375,-0.107421 -0.3897389,-0.08994 -0.5788539,-0.158556 -0.6328125,-0.1875 0.00634,-0.07836 0.022546,-0.231189 -0.068359,-0.404297 C -4.2459718,9.8165951 -4.4357311,9.6174855 -4.7949219,9.3613281 -5.1541127,9.1051707 -5.4034622,8.9919676 -5.6191406,8.9589844 -5.8124031,8.9294291 -5.9514074,8.9938707 -6.0234375,9.0253906 -6.0682119,8.9840689 -6.1939941,8.8278907 -6.40625,8.4882813 -6.6183267,8.1489586 -6.7030689,7.9667372 -6.7207031,7.9082031 -6.660769,7.8572257 -6.5424677,7.7607965 -6.484375,7.5742187 -6.4195121,7.3658972 -6.4134725,7.0913669 -6.4863281,6.65625 -6.5591837,6.2211331 -6.6540182,5.9648928 -6.7832031,5.7890625 -6.8989255,5.6315558 -7.041982,5.5774912 -7.1152344,5.5488281 c -0.00225,-0.061732 0.017684,-0.2595751 0.1074219,-0.6484375 0.08994,-0.3897389 0.158556,-0.5788539 0.1875,-0.6328125 0.078359,0.00634 0.2311889,0.022546 0.4042969,-0.068359 0.1931705,-0.1014405 0.3922801,-0.2911998 0.6484375,-0.6503906 0.2561574,-0.3591908 0.3693605,-0.6085403 0.4023437,-0.8242187 0.029555,-0.1932625 -0.034886,-0.3322668 -0.066406,-0.4042969 0.041322,-0.044774 0.1974999,-0.1705566 0.5371094,-0.3828125 0.3393226,-0.2120767 0.521544,-0.2968189 0.5800781,-0.3144531 0.050977,0.059934 0.1474066,0.1782354 0.3339843,0.2363281 0.2083216,0.064863 0.4828519,0.070903 0.9179688,-0.00195 0.4351169,-0.072856 0.6913572,-0.1676901 0.8671875,-0.296875 0.1575067,-0.1157224 0.2115713,-0.2587789 0.2402344,-0.3320313 z"
     id="path1749"
     transform="matrix(-0.68353322,0.63862458,-0.63862458,-0.68353322,12.527977,11.054651)" />
  <path
     style="color:#000000;fill:#006989;stroke-width:0.514702;stroke-linecap:square;stroke-linejoin:bevel;stroke-miterlimit:3.4;-inkscape-stroke:none;paint-order:stroke fill markers"
     d="M 1.8750002,3.3125 C 2.7643891,4.7355223 1.7125413,3.5828789 1.9896625,5.2379345 2.2667837,6.8929901 2.8857922,5.4605799 2.5084564,7.0957016 2.1311206,8.7308232 2.2023939,7.1720125 1.2280471,8.5382678 0.25370025,9.9045231 1.7042724,9.3293613 0.28125004,10.21875 -1.1417723,11.108139 0.01087113,10.056291 -1.6441845,10.333412 -3.2992401,10.610534 -1.8668299,11.229542 -3.5019516,10.852206 -5.1370732,10.474871 -3.5782625,10.546144 -4.9445178,9.5717971 -6.3107731,8.5974502 -5.7356113,10.048022 -6.6250002,8.625 -7.5143891,7.2019777 -6.4625413,8.3546211 -6.7396625,6.6995655 -7.0167837,5.0445099 -7.6357922,6.4769201 -7.2584564,4.8417984 -6.8811206,3.2066768 -6.9523939,4.7654875 -5.9780471,3.3992322 -5.0037002,2.0329769 -6.4542724,2.6081387 -5.03125,1.7187498 -3.6082277,0.82936086 -4.7608711,1.8812087 -3.1058155,1.6040875 -1.4507599,1.3269663 -2.8831701,0.70795782 -1.2480484,1.0852936 0.38707323,1.4626294 -1.1717375,1.3913561 0.19451784,2.3657029 1.5607731,3.3400498 0.98561127,1.8894776 1.8750002,3.3125 Z"
     id="path1751"
     transform="matrix(-0.68353322,0.63862458,-0.63862458,-0.68353322,12.527977,11.054651)" />
  <circle
     style="fill:#ffffff;fill-opacity:1;stroke:none;stroke-width:0.556707;stroke-linecap:square;stroke-linejoin:bevel;stroke-miterlimit:3.4;stroke-dasharray:none;paint-order:stroke fill markers"
     id="path1305"
     cx="10.402236"
     cy="5.5425129"
     r="2.4742491" />
  <circle
     style="fill:#ffffff;fill-opacity:1;stroke:none;stroke-width:0.376152;stroke-linecap:square;stroke-linejoin:bevel;stroke-miterlimit:3.4;stroke-dasharray:none;paint-order:stroke fill markers"
     id="path1305-1"
     cx="5.2531228"
     cy="11.849959"
     r="1.67179" />
</svg>
