<?xml version="1.0" encoding="UTF-8" standalone="no"?>
<svg
   height="16"
   viewBox="0 0 16 16"
   width="16"
   version="1.1"
   id="svg1109"
   sodipodi:docname="StrategyIcon.svg"
   inkscape:version="1.2.2 (732a01da63, 2022-12-09)"
   xmlns:inkscape="http://www.inkscape.org/namespaces/inkscape"
   xmlns:sodipodi="http://sodipodi.sourceforge.net/DTD/sodipodi-0.dtd"
   xmlns="http://www.w3.org/2000/svg"
   xmlns:svg="http://www.w3.org/2000/svg">
  <defs
     id="defs1113">
    <inkscape:path-effect
       effect="bspline"
       id="path-effect7648"
       is_visible="true"
       lpeversion="1"
       weight="33.333333"
       steps="2"
       helper_size="0"
       apply_no_weight="true"
       apply_with_weight="true"
       only_selected="false" />
    <inkscape:path-effect
       effect="bspline"
       id="path-effect7622"
       is_visible="true"
       lpeversion="1"
       weight="33.333333"
       steps="2"
       helper_size="0"
       apply_no_weight="true"
       apply_with_weight="true"
       only_selected="false" />
  </defs>
  <sodipodi:namedview
     id="namedview1111"
     pagecolor="#505050"
     bordercolor="#eeeeee"
     borderopacity="1"
     inkscape:showpageshadow="0"
     inkscape:pageopacity="0"
     inkscape:pagecheckerboard="0"
     inkscape:deskcolor="#505050"
     showgrid="false"
     inkscape:zoom="32"
     inkscape:cx="3.09375"
     inkscape:cy="8.546875"
     inkscape:window-width="2400"
     inkscape:window-height="1321"
     inkscape:window-x="2391"
     inkscape:window-y="-9"
     inkscape:window-maximized="1"
     inkscape:current-layer="svg1109"
     showguides="true">
    <sodipodi:guide
       position="8.03125,17.1875"
       orientation="1,0"
       id="guide8663"
       inkscape:locked="false" />
    <sodipodi:guide
       position="3,8.03125"
       orientation="0,-1"
       id="guide8665"
       inkscape:locked="false" />
  </sodipodi:namedview>
  <path
     style="color:#000000;display:inline;fill:#ffffff;stroke-width:1.9123;-inkscape-stroke:none;paint-order:stroke fill markers"
     d="M 8.1924513,13.499966 C 3.4571738,13.561299 2.5273996,12.914568 2.3603234,8.1818412 2.196934,3.5535498 3.1810281,2.7775379 7.8118142,2.7175565 12.547092,2.6562216 13.476866,3.3029536 13.643943,8.0356802 13.807333,12.663973 12.823237,13.439984 8.1924513,13.499966 Z"
     id="path7379" />
  <path
     id="path7646"
     style="color:#000000;fill:#006989;stroke-width:1.26347;-inkscape-stroke:none;paint-order:stroke fill markers"
     d="m 11.037193,4.0180685 c -0.08349,2.423e-4 -0.108646,0.035381 -0.135724,0.049354 -0.03611,0.018631 -0.06007,0.035285 -0.08637,0.05429 -0.05261,0.038013 -0.107092,0.082114 -0.167805,0.1357243 -0.121434,0.1072223 -0.265926,0.2464646 -0.407171,0.3898988 -0.141247,0.1434347 -0.2779745,0.2898724 -0.3824962,0.4121082 -0.052258,0.061117 -0.096844,0.1154115 -0.1332569,0.1678044 -0.018207,0.026197 -0.034661,0.050909 -0.051821,0.08637 -0.017153,0.035459 -0.071008,0.069529 -0.019742,0.2294973 0.05127,0.1599673 0.1179487,0.1597663 0.1529986,0.180143 0.035052,0.020376 0.063287,0.032291 0.093772,0.044419 0.060975,0.024256 0.1280305,0.045975 0.2072885,0.069095 0.03963,0.011561 0.08165,0.022664 0.125853,0.034548 C 10.126607,6.388149 10.015257,6.8722582 9.8823026,7.2433693 9.7954896,7.4857001 9.697965,7.6780974 9.6108551,7.7936695 9.5237389,7.909239 9.4637102,7.9402534 9.4159056,7.9516031 9.3204,7.9742697 8.8842112,7.8507656 8.3918045,7.6357358 7.8993965,7.420706 7.338559,7.1274466 6.6915501,7.2803851 6.0443979,7.4333571 5.6701613,7.9901996 5.3787266,8.5981443 5.2166595,8.9362221 5.0774184,9.3109202 4.9468769,9.6987446 4.8342521,9.6963301 4.7130633,9.7160213 4.5767198,9.7777114 4.2289123,9.9350727 4.1285291,10.231261 4.0486293,10.471139 c -0.0799,0.239876 -0.1790367,0.536605 0.00494,0.871102 0.1839718,0.334495 0.4581257,0.402003 0.688492,0.478736 0.2303673,0.07673 0.488749,0.186981 0.8365547,0.02962 0.3478074,-0.157361 0.4481908,-0.45355 0.5280906,-0.693427 0.0799,-0.239876 0.1790362,-0.536608 -0.00494,-0.871103 C 6.032777,10.160623 5.9521453,10.071954 5.8648661,10.007208 5.989224,9.6385441 6.1149712,9.2965066 6.2498294,9.0151876 6.4923786,8.50922 6.7472874,8.2599073 6.9136442,8.2205843 7.0801436,8.1812272 7.5191668,8.30976 8.0043731,8.521645 8.4895806,8.73353 9.0079251,9.0419719 9.640467,8.8918023 c 0.3162173,-0.075075 0.565385,-0.2803941 0.742782,-0.5157532 0.177396,-0.235359 0.300552,-0.5093347 0.407172,-0.8069411 0.161982,-0.4521364 0.28038,-0.9682587 0.387431,-1.4929668 0.019,0.00308 0.03865,0.00713 0.05676,0.00987 0.08187,0.012407 0.151164,0.020933 0.217159,0.024677 0.033,0.00188 0.0652,0.00363 0.106106,0 0.04092,-0.00363 0.09935,0.023431 0.219627,-0.098709 0.120282,-0.1221395 0.08777,-0.1756829 0.08883,-0.214691 0.0011,-0.039008 -0.0032,-0.067575 -0.0075,-0.098709 -0.0083,-0.062269 -0.02339,-0.1305617 -0.04195,-0.2072879 -0.03702,-0.1534579 -0.09273,-0.3402289 -0.15294,-0.5280871 -0.06021,-0.187858 -0.123377,-0.3736254 -0.182611,-0.5206875 -0.02962,-0.073531 -0.05679,-0.1363442 -0.08637,-0.1924815 -0.01479,-0.028068 -0.03053,-0.054534 -0.05429,-0.086369 -0.02377,-0.031834 -0.02588,-0.095429 -0.197417,-0.1332565 -0.04288,-0.00946 -0.07828,-0.01242 -0.106106,-0.012344 z" />
  <path
     style="color:#000000;fill:#890000;stroke-width:1.26347;-inkscape-stroke:none;paint-order:stroke fill markers"
     d="m 5.2011474,4.5453606 c -0.00159,9.061e-4 -0.1228105,0.1316437 -0.1236886,0.1334549 -4.39e-4,9.057e-4 -0.017635,0.041927 -0.022111,0.060683 -0.00447,0.018756 -0.00666,0.036363 -0.00776,0.05076 -0.0044,0.057593 0.0037,0.088361 0.00986,0.1136756 0.012294,0.050633 0.02542,0.080501 0.040758,0.1148 0.030685,0.068596 0.069627,0.140298 0.1080127,0.2108582 0.029118,0.053521 0.053559,0.09951 0.077163,0.1435152 -0.034207,0.046861 -0.073576,0.099127 -0.1170832,0.1577378 -0.052551,0.070796 -0.1044307,0.143518 -0.1480189,0.2117943 -0.021794,0.034139 -0.041299,0.066554 -0.060769,0.1103198 -0.00973,0.021883 -0.02062,0.044272 -0.028749,0.086061 -0.00407,0.020895 -0.00764,0.047197 -0.00557,0.082766 0.00104,0.017783 0.00283,0.03904 0.00879,0.061808 0.00595,0.022768 0.030345,0.071961 0.030849,0.072859 9.06e-4,0.00159 0.1283336,0.1217049 0.1301449,0.122583 9.057e-4,4.392e-4 0.045237,0.018742 0.063993,0.023217 0.018756,0.00447 0.036361,0.00666 0.05076,0.00776 0.057591,0.0044 0.08505,-0.00481 0.1103665,-0.010967 0.050634,-0.012294 0.082708,-0.026523 0.1170074,-0.04186 0.068595,-0.030683 0.13809,-0.068524 0.2086503,-0.1069097 0.054346,-0.029572 0.1013163,-0.054475 0.1457231,-0.078266 0.047144,0.034381 0.09957,0.075294 0.1588399,0.1192917 0.070796,0.052551 0.1435178,0.1044308 0.2117942,0.1480188 0.034139,0.021794 0.064347,0.042402 0.1081112,0.061871 0.021883,0.00973 0.046481,0.019518 0.08827,0.027647 0.020895,0.00407 0.047197,0.00764 0.082766,0.00557 0.017783,-0.00104 0.037936,-0.00504 0.060705,-0.010992 0.022768,-0.00595 0.073061,-0.02814 0.07396,-0.028645 0.00159,-9.058e-4 0.1206032,-0.1305414 0.1214813,-0.1323525 4.39e-4,-9.059e-4 0.019844,-0.043029 0.024319,-0.061786 0.00447,-0.018756 0.00445,-0.03526 0.00555,-0.049658 0.0044,-0.057593 -0.0026,-0.086153 -0.00876,-0.1114683 C 6.7042184,5.9888738 6.6899892,5.9567994 6.6746519,5.9225 6.6439673,5.8539038 6.6061277,5.7844099 6.567741,5.7138496 6.5385144,5.6601383 6.5131275,5.6122263 6.4894754,5.5681265 6.5238291,5.5210294 6.5626429,5.4695506 6.6065585,5.4103888 6.65911,5.3395929 6.7109893,5.2668709 6.7545773,5.1985945 c 0.021794,-0.034139 0.042402,-0.064347 0.061871,-0.1081112 0.00973,-0.021883 0.021725,-0.047582 0.029854,-0.089371 0.00407,-0.020895 0.00764,-0.047197 0.00557,-0.082766 -0.00104,-0.017783 -0.00504,-0.037936 -0.010992,-0.060705 -0.00596,-0.022768 -0.02814,-0.073061 -0.028645,-0.07396 C 6.8113312,4.7820894 6.6816956,4.6630795 6.6798845,4.6622001 6.6789785,4.661761 6.6346472,4.643459 6.615891,4.6389826 c -0.018756,-0.00447 -0.034154,-0.00776 -0.048553,-0.00886 -0.057593,-0.0044 -0.087259,0.00591 -0.1125738,0.012066 -0.050633,0.012294 -0.080501,0.02542 -0.1148001,0.040758 -0.068596,0.030685 -0.140298,0.069627 -0.2108583,0.1080127 -0.053521,0.029118 -0.09951,0.053559 -0.1435151,0.077163 C 5.9384246,4.8337299 5.8838667,4.7939723 5.8245423,4.7499366 5.7537501,4.6973826 5.683236,4.6444003 5.6149594,4.6008124 5.5808205,4.5790188 5.5484049,4.5595134 5.5046396,4.5400433 c -0.021883,-0.00973 -0.046481,-0.019518 -0.08827,-0.027647 -0.020895,-0.00407 -0.044988,-0.00876 -0.080558,-0.00667 -0.017783,0.00104 -0.037936,0.00504 -0.060705,0.010992 -0.022768,0.00595 -0.073061,0.02814 -0.07396,0.028645 z"
     id="path7708" />
  <path
     style="color:#000000;fill:#00892f;stroke-width:1.26347;-inkscape-stroke:none;paint-order:stroke fill markers"
     d="M 10.230251,9.738228 C 10.051654,9.726099 10.209171,9.717545 10.010624,9.743158 9.8120663,9.768781 9.968058,9.735448 9.7984006,9.792509 9.628742,9.849618 9.7721586,9.781643 9.598516,9.881343 9.4248775,9.980993 9.553271,9.891956 9.4183731,10.009664 c -0.1348917,0.117679 -0.028239,0.0019 -0.1505309,0.160401 -0.1222912,0.158517 -0.033924,0.02474 -0.1135101,0.185079 -0.079586,0.160344 -0.026647,0.01162 -0.078967,0.20482 -0.05232,0.193247 -0.024852,0.0361 -0.03702,0.214691 -0.012129,0.178596 -0.018219,0.02107 0.00745,0.219626 0.025623,0.198558 -0.00771,0.04503 0.049351,0.214691 0.057096,0.169659 -0.010866,0.02624 0.088834,0.199885 0.09965,0.173639 0.010613,0.04278 0.1283217,0.177675 0.1176795,0.134892 -5.837e-4,0.02824 0.1579337,0.150531 0.1585161,0.122292 0.027202,0.0364 0.1875455,0.115987 0.1603444,0.07959 0.011624,0.02418 0.2048197,0.0765 0.1932473,0.05232 0.036097,0.02484 0.2146913,0.03702 0.178596,0.01213 0.02107,0.01822 0.219626,-0.0075 0.198558,-0.02562 0.04257,0.0077 0.212223,-0.04935 0.169659,-0.05711 0.02872,0.01087 0.202353,-0.08883 0.173639,-0.09965 0.04278,-0.01061 0.177675,-0.12832 0.134892,-0.117679 0.02825,5.83e-4 0.150531,-0.157934 0.122291,-0.158517 0.0364,-0.0272 0.115986,-0.187546 0.07959,-0.160345 0.02418,-0.0091 0.0765,-0.202353 0.05232,-0.193247 0.02484,-0.03856 0.03702,-0.217158 0.01213,-0.178597 0.01822,-0.02107 -0.0075,-0.219627 -0.02562,-0.198558 0.0077,-0.04257 -0.04935,-0.212223 -0.05711,-0.169659 0.01086,-0.02624 -0.08883,-0.199885 -0.09965,-0.17364 -0.01061,-0.04278 -0.12832,-0.177675 -0.11768,-0.1348922 5.82e-4,-0.02824 -0.157934,-0.1505314 -0.158517,-0.1222912 -0.0272,-0.036401 -0.187547,-0.1159865 -0.160344,-0.079586 -0.01162,-0.026647 -0.20482,-0.078967 -0.193247,-0.05232 -0.0361,-0.022376 -0.214691,-0.034543 z m -0.03948,0.584847 c -0.149597,-0.01023 0.266367,0.062 0.101179,0.01727 -0.165191,-0.04471 0.23055,0.10368 0.09624,0.03702 -0.134309,-0.06666 0.224342,0.158821 0.08883,0.05429 -0.135505,-0.10454 0.175072,0.184552 0.0765,0.07156 -0.09858,-0.112992 0.144412,0.232333 0.05922,0.08391 -0.08518,-0.148431 0.08978,0.238351 0.04195,0.09624 -0.04784,-0.142111 0.04657,0.270908 0.02468,0.101179 -0.0219,-0.169732 -0.0077,0.253241 0.0025,0.103642 0.01023,-0.149598 -0.062,0.266367 -0.01727,0.101179 0.04471,-0.165191 -0.103681,0.233017 -0.03702,0.09872 0.06666,-0.13431 -0.158822,0.221872 -0.05429,0.08637 0.104539,-0.135503 -0.184553,0.175074 -0.07156,0.0765 0.112992,-0.09858 -0.232333,0.14688 -0.08391,0.0617 0.14843,-0.08518 -0.235885,0.08978 -0.09377,0.04195 0.142111,-0.04783 -0.270907,0.04411 -0.101178,0.02221 0.16973,-0.0219 -0.2557102,-0.0077 -0.106119,0.0025 0.149598,0.01024 -0.2663673,-0.05952 -0.101179,-0.01481 0.165191,0.04473 -0.2305501,-0.106144 -0.096238,-0.03948 0.13431,0.06666 -0.2243403,-0.158822 -0.088835,-0.05429 0.1355033,0.104527 -0.1750738,-0.184553 -0.076503,-0.07156 0.098576,0.112992 -0.1444108,-0.232333 -0.059219,-0.08391 0.085183,0.14843 -0.089782,-0.235883 -0.041947,-0.09377 0.047835,0.14211 -0.046572,-0.270908 -0.024675,-0.101178 0.021896,0.16973 0.00771,-0.253241 -0.00253,-0.103643 -0.010234,0.149599 0.061998,-0.268834 0.017272,-0.103642 -0.044727,0.165191 0.1036803,-0.23055 0.03702,-0.09624 -0.066661,0.134309 0.1588218,-0.224342 0.054291,-0.08883 -0.1045268,0.135503 0.1845524,-0.172606 0.071563,-0.07403 -0.112992,0.09858 0.232332,-0.146879 0.083907,-0.06169 -0.1484298,0.08518 0.238352,-0.08978 0.096238,-0.04195 -0.1421112,0.04783 0.270906,-0.04658 0.101178,-0.02468 -0.1697301,0.0219 0.253241,0.0077 0.103643,-0.0025 z"
     id="path7710" />
</svg>
