<?xml version="1.0" encoding="UTF-8" standalone="no"?>
<svg
   height="16"
   viewBox="0 0 16 16"
   width="16"
   version="1.1"
   id="svg1109"
   sodipodi:docname="StrategyMachineIcon.svg"
   inkscape:version="1.2.2 (732a01da63, 2022-12-09)"
   xmlns:inkscape="http://www.inkscape.org/namespaces/inkscape"
   xmlns:sodipodi="http://sodipodi.sourceforge.net/DTD/sodipodi-0.dtd"
   xmlns="http://www.w3.org/2000/svg"
   xmlns:svg="http://www.w3.org/2000/svg">
  <defs
     id="defs1113">
    <inkscape:path-effect
       effect="bspline"
       id="path-effect7648"
       is_visible="true"
       lpeversion="1"
       weight="33.333333"
       steps="2"
       helper_size="0"
       apply_no_weight="true"
       apply_with_weight="true"
       only_selected="false" />
    <inkscape:path-effect
       effect="bspline"
       id="path-effect7622"
       is_visible="true"
       lpeversion="1"
       weight="33.333333"
       steps="2"
       helper_size="0"
       apply_no_weight="true"
       apply_with_weight="true"
       only_selected="false" />
  </defs>
  <sodipodi:namedview
     id="namedview1111"
     pagecolor="#505050"
     bordercolor="#eeeeee"
     borderopacity="1"
     inkscape:showpageshadow="0"
     inkscape:pageopacity="0"
     inkscape:pagecheckerboard="0"
     inkscape:deskcolor="#505050"
     showgrid="false"
     inkscape:zoom="32"
     inkscape:cx="3.09375"
     inkscape:cy="8.546875"
     inkscape:window-width="2400"
     inkscape:window-height="1321"
     inkscape:window-x="2391"
     inkscape:window-y="-9"
     inkscape:window-maximized="1"
     inkscape:current-layer="svg1109" />
  <path
     id="circle1107"
     style="fill:#ffffff;stroke:none;stroke-width:2;fill-opacity:1"
     d="M 8.171875 1.3457031 C 8.1265788 1.3456795 8.0834374 1.3473727 8.0429688 1.3496094 C 6.8289085 1.4167091 7.5834839 2.4216227 6.1777344 2.9335938 C 4.6782686 3.479696 4.6995109 2.0161316 3.5234375 3.09375 C 2.347364 4.1713686 3.8084004 4.2756261 3.1347656 5.7207031 C 2.4611312 7.1657799 1.4397345 6.1184022 1.3710938 7.7109375 C 1.3024529 9.3034732 2.4102284 8.3462048 2.9570312 9.84375 C 3.5038342 11.341296 2.0381868 11.319574 3.1171875 12.494141 C 4.1530648 13.621763 4.2941691 12.324825 5.5839844 12.814453 C 5.5058643 12.383854 5.4609097 11.901818 5.4316406 11.371094 A 4.1945601 4.1945601 0 0 1 3.796875 8.0527344 A 4.1945601 4.1945601 0 0 1 7.9921875 3.8574219 A 4.1945601 4.1945601 0 0 1 11.474609 5.7128906 C 12.043007 5.7236356 12.554713 5.7566714 13.007812 5.8417969 C 12.754908 4.6503567 13.934386 4.5853514 12.935547 3.4980469 C 11.856546 2.3234799 11.751617 3.7821465 10.304688 3.109375 C 8.8577564 2.4366035 9.9090311 1.4181622 8.3144531 1.3496094 C 8.2646226 1.3474671 8.2171712 1.3457267 8.171875 1.3457031 z " />
  <path
     style="color:#000000;display:inline;fill:#ffffff;stroke-width:0.99987;-inkscape-stroke:none;paint-order:stroke fill markers"
     d="M 8.1061345,11.030252 C 5.630239,11.062321 5.1440957,10.72417 5.0567379,8.2496082 4.9713078,5.8296517 5.485853,5.4239048 7.9071139,5.3925428 10.383009,5.3604731 10.869153,5.6986245 10.956511,8.1731862 11.041941,10.593143 10.527395,10.99889 8.1061345,11.030252 Z"
     id="path7379"
     transform="matrix(1.5137303,0,0,1.5137303,-1.4927368,-1.69608)" />
  <path
     id="path7646"
     style="color:#000000;fill:#006989;-inkscape-stroke:none;paint-order:stroke fill markers"
     d="M 13.029297 7.4960938 C 12.963219 7.4962856 12.943311 7.5240967 12.921875 7.5351562 C 12.893293 7.5499025 12.874334 7.5630828 12.853516 7.578125 C 12.811872 7.6082107 12.768759 7.6431155 12.720703 7.6855469 C 12.624591 7.7704101 12.510229 7.8806165 12.398438 7.9941406 C 12.286645 8.1076651 12.178429 8.2235664 12.095703 8.3203125 C 12.054342 8.3686853 12.019054 8.4116575 11.990234 8.453125 C 11.975824 8.473859 11.962801 8.4934182 11.949219 8.5214844 C 11.935643 8.5495493 11.893018 8.5765149 11.933594 8.703125 C 11.974173 8.8297346 12.026947 8.8295755 12.054688 8.8457031 C 12.082431 8.8618304 12.104778 8.8712603 12.128906 8.8808594 C 12.177166 8.900057 12.230238 8.9172479 12.292969 8.9355469 C 12.324334 8.9446963 12.357589 8.953485 12.392578 8.9628906 C 12.308594 9.3719454 12.220464 9.7551041 12.115234 10.048828 C 12.046524 10.240626 11.969336 10.392903 11.900391 10.484375 C 11.831441 10.575845 11.78393 10.600392 11.746094 10.609375 C 11.670504 10.627315 11.325273 10.529565 10.935547 10.359375 C 10.54582 10.189185 10.101933 9.9570785 9.5898438 10.078125 C 9.0776412 10.199198 8.7814435 10.639923 8.5507812 11.121094 C 8.4225097 11.388673 8.3123043 11.685236 8.2089844 11.992188 C 8.1198451 11.990277 8.0239276 12.005862 7.9160156 12.054688 C 7.6407358 12.179235 7.5612853 12.41366 7.4980469 12.603516 C 7.4348083 12.793371 7.3563444 13.028224 7.5019531 13.292969 C 7.6475616 13.557712 7.8645466 13.611143 8.046875 13.671875 C 8.2292042 13.732609 8.433706 13.819865 8.7089844 13.695312 C 8.9842641 13.570765 9.0637147 13.33634 9.1269531 13.146484 C 9.1901917 12.956629 9.2686552 12.721774 9.1230469 12.457031 C 9.0684436 12.357752 9.0046259 12.287573 8.9355469 12.236328 C 9.0339726 11.944541 9.133498 11.673828 9.2402344 11.451172 C 9.4322052 11.050713 9.6339583 10.853389 9.765625 10.822266 C 9.8974046 10.791116 10.244879 10.892846 10.628906 11.060547 C 11.012934 11.228248 11.423189 11.472371 11.923828 11.353516 C 12.174105 11.294096 12.371314 11.131592 12.511719 10.945312 C 12.652123 10.759032 12.749597 10.542188 12.833984 10.306641 C 12.962188 9.9487878 13.055897 9.5402916 13.140625 9.125 C 13.155664 9.1274438 13.171213 9.1306394 13.185547 9.1328125 C 13.250351 9.142637 13.305189 9.1493802 13.357422 9.1523438 C 13.383537 9.1538289 13.409019 9.1552123 13.441406 9.1523438 C 13.473793 9.1494757 13.52004 9.1708884 13.615234 9.0742188 C 13.710429 8.9775488 13.684707 8.9351707 13.685547 8.9042969 C 13.686385 8.8734234 13.682999 8.8508133 13.679688 8.8261719 C 13.673077 8.7768876 13.661182 8.722836 13.646484 8.6621094 C 13.617137 8.540649 13.573042 8.392825 13.525391 8.2441406 C 13.477739 8.0954563 13.427741 7.9484267 13.380859 7.8320312 C 13.357419 7.7738336 13.335913 7.7241186 13.3125 7.6796875 C 13.300791 7.6574723 13.288337 7.6365254 13.269531 7.6113281 C 13.25072 7.5861319 13.249055 7.535799 13.113281 7.5058594 C 13.079339 7.4983742 13.051323 7.4960298 13.029297 7.4960938 z " />
  <path
     style="color:#000000;fill:#890000;-inkscape-stroke:none;paint-order:stroke fill markers"
     d="m 8.171875,7.4550781 c -0.00145,7.76e-5 -0.1335032,0.049809 -0.1347656,0.050781 -6.312e-4,4.862e-4 -0.02731,0.023456 -0.037109,0.035156 -0.0098,0.0117 -0.01757,0.023396 -0.023437,0.033203 -0.023469,0.039231 -0.02861,0.063883 -0.033203,0.083984 -0.00919,0.040203 -0.010456,0.065992 -0.011719,0.095703 -0.00252,0.059423 -2.895e-4,0.123964 0.00195,0.1875 0.0017,0.048193 0.00275,0.0894 0.00391,0.1289063 -0.040789,0.021092 -0.087143,0.044187 -0.1386719,0.070312 -0.06224,0.031557 -0.1246852,0.064715 -0.1796875,0.097656 -0.027501,0.016471 -0.052773,0.032531 -0.082031,0.056641 -0.014629,0.012055 -0.030252,0.024062 -0.050781,0.050781 -0.010265,0.01336 -0.022101,0.030718 -0.033203,0.056641 -0.00555,0.012961 -0.011796,0.028646 -0.015625,0.046875 -0.00383,0.018229 -0.00395,0.061685 -0.00391,0.0625 7.76e-5,0.00145 0.047856,0.13155 0.048828,0.1328125 4.862e-4,6.312e-4 0.025409,0.029263 0.037109,0.039063 0.0117,0.0098 0.023395,0.01757 0.033203,0.023437 0.03923,0.023469 0.06193,0.026656 0.082031,0.03125 0.040203,0.00919 0.067945,0.010456 0.097656,0.011719 0.059422,0.00252 0.1220108,2.895e-4 0.1855468,-0.00195 0.048938,-0.00173 0.091003,-0.00276 0.1308594,-0.00391 0.021231,0.041012 0.043893,0.088517 0.070312,0.140625 0.031557,0.06224 0.064715,0.1246852 0.097656,0.1796875 0.016471,0.027501 0.030578,0.052773 0.054687,0.082031 0.012055,0.014629 0.026015,0.030252 0.052734,0.050781 0.01336,0.010265 0.030718,0.022101 0.056641,0.033203 0.012961,0.00555 0.028646,0.00984 0.046875,0.013672 0.018229,0.00383 0.061685,0.0059 0.0625,0.00586 0.00145,-7.75e-5 0.1315501,-0.049809 0.1328125,-0.050781 6.312e-4,-4.863e-4 0.029263,-0.023456 0.039063,-0.035156 0.0098,-0.0117 0.015617,-0.023395 0.021484,-0.033203 0.023469,-0.039231 0.02861,-0.06193 0.033203,-0.082031 0.00919,-0.040203 0.010456,-0.067945 0.011719,-0.097656 0.00252,-0.059423 2.895e-4,-0.1220109 -0.00195,-0.1855469 -0.00171,-0.048367 -0.00275,-0.09127 -0.00391,-0.1308594 0.040976,-0.021208 0.086659,-0.043941 0.1386718,-0.070312 0.06224,-0.031557 0.1246852,-0.064715 0.1796875,-0.097656 0.027501,-0.016471 0.052773,-0.030578 0.082031,-0.054687 0.014629,-0.012055 0.032205,-0.026015 0.052734,-0.052734 0.010265,-0.01336 0.022101,-0.030718 0.033203,-0.056641 0.00555,-0.012961 0.00984,-0.028646 0.013672,-0.046875 0.00383,-0.018229 0.0059,-0.061685 0.00586,-0.0625 -7.75e-5,-0.00145 -0.049809,-0.1315501 -0.050781,-0.1328125 -4.863e-4,-6.312e-4 -0.025409,-0.029263 -0.037109,-0.039063 -0.0117,-0.0098 -0.021442,-0.01757 -0.03125,-0.023437 -0.039231,-0.023469 -0.063883,-0.026657 -0.083984,-0.03125 -0.040203,-0.00919 -0.065992,-0.010456 -0.095703,-0.011719 -0.059423,-0.00252 -0.123964,-2.895e-4 -0.1875,0.00195 -0.048193,0.0017 -0.0894,0.00275 -0.1289062,0.00391 -0.021242,-0.04103 -0.045822,-0.08847 -0.072266,-0.140625 C 8.509459,7.7580727 8.4782538,7.6956273 8.4453125,7.640625 8.4288418,7.6131239 8.4127816,7.5878522 8.3886719,7.5585937 8.376617,7.5439645 8.3626569,7.5283417 8.3359375,7.5078125 8.3225778,7.4975479 8.3071728,7.4857115 8.28125,7.4746094 c -0.012961,-0.00555 -0.028646,-0.00984 -0.046875,-0.013672 -0.018229,-0.00383 -0.061685,-0.0059 -0.0625,-0.00586 z"
     id="path7708"
     transform="rotate(-26.527998,9.2632657,7.1786744)" />
  <path
     style="color:#000000;fill:#00892f;-inkscape-stroke:none;paint-order:stroke fill markers"
     d="m 12.390625,12.023438 c -0.141354,-0.0096 -0.01668,-0.01637 -0.173828,0.0039 -0.157153,0.02028 -0.03369,-0.0061 -0.167969,0.03906 -0.13428,0.0452 -0.02077,-0.0086 -0.158203,0.07031 -0.13743,0.07887 -0.03581,0.0084 -0.142578,0.101562 -0.106763,0.09314 -0.02235,0.0015 -0.119141,0.126953 -0.09679,0.125462 -0.02685,0.01958 -0.08984,0.146485 -0.06299,0.126908 -0.02109,0.0092 -0.0625,0.162109 -0.04141,0.15295 -0.01967,0.02857 -0.0293,0.169922 -0.0096,0.141354 -0.01442,0.01668 0.0059,0.173828 0.02028,0.157153 -0.0061,0.03564 0.03906,0.169922 0.04519,0.13428 -0.0086,0.02077 0.07031,0.158203 0.07887,0.13743 0.0084,0.03386 0.101563,0.140625 0.09314,0.106763 -4.62e-4,0.02235 0.125,0.119141 0.125461,0.09679 0.02153,0.02881 0.148437,0.0918 0.126908,0.06299 0.0092,0.01914 0.162109,0.06055 0.15295,0.04141 0.02857,0.01966 0.169922,0.0293 0.141354,0.0096 0.01668,0.01442 0.173828,-0.0059 0.157153,-0.02028 0.03369,0.0061 0.167969,-0.03906 0.13428,-0.0452 0.02273,0.0086 0.160156,-0.07031 0.137431,-0.07887 0.03386,-0.0084 0.140625,-0.101562 0.106763,-0.09314 0.02236,4.61e-4 0.119141,-0.125 0.09679,-0.125462 0.02881,-0.02153 0.0918,-0.148438 0.06299,-0.126908 0.01914,-0.0072 0.06055,-0.160156 0.04141,-0.15295 0.01966,-0.03052 0.0293,-0.171875 0.0096,-0.141354 0.01442,-0.01668 -0.0059,-0.173828 -0.02028,-0.157153 0.0061,-0.03369 -0.03906,-0.167969 -0.0452,-0.13428 0.0086,-0.02077 -0.07031,-0.158203 -0.07887,-0.137431 -0.0084,-0.03386 -0.101562,-0.140625 -0.09314,-0.106763 4.61e-4,-0.02235 -0.125,-0.119141 -0.125462,-0.09679 -0.02153,-0.02881 -0.148438,-0.0918 -0.126908,-0.06299 -0.0092,-0.02109 -0.162109,-0.0625 -0.15295,-0.04141 -0.02857,-0.01771 -0.169922,-0.02734 z m -0.03125,0.46289 c -0.118402,-0.0081 0.210822,0.04907 0.08008,0.01367 -0.130744,-0.03539 0.182474,0.08206 0.07617,0.0293 -0.106302,-0.05276 0.17756,0.125703 0.07031,0.04297 -0.107248,-0.08274 0.138565,0.146068 0.06055,0.05664 -0.07802,-0.08943 0.114298,0.183885 0.04687,0.06641 -0.06742,-0.117479 0.07106,0.188648 0.0332,0.07617 -0.03786,-0.112477 0.03686,0.214416 0.01953,0.08008 -0.01733,-0.134338 -0.0061,0.200433 0.002,0.08203 0.0081,-0.118403 -0.04907,0.210822 -0.01367,0.08008 0.03539,-0.130744 -0.08206,0.184427 -0.0293,0.07813 0.05276,-0.106302 -0.125703,0.175606 -0.04297,0.06836 0.08274,-0.107247 -0.146068,0.138566 -0.05664,0.06055 0.08943,-0.07802 -0.183885,0.116251 -0.06641,0.04883 0.117478,-0.06742 -0.186696,0.07106 -0.07422,0.0332 0.112477,-0.03786 -0.214415,0.03491 -0.08008,0.01758 0.134337,-0.01733 -0.202387,-0.0061 -0.08399,0.002 0.118403,0.0081 -0.210822,-0.04711 -0.08008,-0.01172 0.130744,0.0354 -0.182474,-0.08401 -0.07617,-0.03125 0.106303,0.05276 -0.177559,-0.125703 -0.07031,-0.04297 0.107247,0.08273 -0.138566,-0.146068 -0.06055,-0.05664 0.07802,0.08943 -0.114297,-0.183885 -0.04687,-0.06641 0.06742,0.117478 -0.07106,-0.186695 -0.0332,-0.07422 0.03786,0.112476 -0.03686,-0.214416 -0.01953,-0.08008 0.01733,0.134337 0.0061,-0.200433 -0.002,-0.08203 -0.0081,0.118403 0.04907,-0.212775 0.01367,-0.08203 -0.0354,0.130744 0.08206,-0.182474 0.0293,-0.07617 -0.05276,0.106302 0.125703,-0.17756 0.04297,-0.07031 -0.08273,0.107247 0.146068,-0.136613 0.05664,-0.05859 -0.08943,0.07802 0.183884,-0.116251 0.06641,-0.04883 -0.117478,0.06742 0.188649,-0.07106 0.07617,-0.0332 -0.112477,0.03786 0.214415,-0.03687 0.08008,-0.01953 -0.134337,0.01733 0.200433,0.0061 0.08203,-0.002 z"
     id="path7710" />
</svg>
